HIERARCHY
ROOT mixamorig:Hips
{
	OFFSET -0.000008 104.274872 1.554316
	CHANNELS 6 Xposition Yposition Zposition Xrotation Yrotation Zrotation
	JOINT mixamorig:Spine
	{
		OFFSET -0.000005 10.181595 0.131519
		CHANNELS 6 Xposition Yposition Zposition Xrotation Yrotation Zrotation
		JOINT mixamorig:Spine1
		{
			OFFSET -0.000000 9.893959 -1.470707
			CHANNELS 6 Xposition Yposition Zposition Xrotation Yrotation Zrotation
			JOINT mixamorig:Spine2
			{
				OFFSET -0.000000 9.220757 -1.370641
				CHANNELS 6 Xposition Yposition Zposition Xrotation Yrotation Zrotation
				JOINT mixamorig:Neck
				{
					OFFSET 0.000001 16.740417 -2.049036
					CHANNELS 6 Xposition Yposition Zposition Xrotation Yrotation Zrotation
					JOINT mixamorig:Head
					{
						OFFSET 0.000000 9.617874 1.685006
						CHANNELS 6 Xposition Yposition Zposition Xrotation Yrotation Zrotation
						JOINT mixamorig:HeadTop_End
						{
							OFFSET 0.000002 22.037354 7.501101
							CHANNELS 6 Xposition Yposition Zposition Xrotation Yrotation Zrotation
							End Site
							{
								OFFSET 0.000168 2310.654297 -282.823242
							}
						}
					}
				}
				JOINT mixamorig:RightShoulder
				{
					OFFSET -4.569970 11.014908 -2.160885
					CHANNELS 6 Xposition Yposition Zposition Xrotation Yrotation Zrotation
					JOINT mixamorig:RightArm
					{
						OFFSET -10.592851 -0.524811 -2.232101
						CHANNELS 6 Xposition Yposition Zposition Xrotation Yrotation Zrotation
						JOINT mixamorig:RightForeArm
						{
							OFFSET -27.841511 0.000031 -0.000004
							CHANNELS 6 Xposition Yposition Zposition Xrotation Yrotation Zrotation
							JOINT mixamorig:RightHand
							{
								OFFSET -28.328831 -0.000015 0.000015
								CHANNELS 6 Xposition Yposition Zposition Xrotation Yrotation Zrotation
								JOINT mixamorig:RightHandThumb1
								{
									OFFSET -2.464806 -1.573990 2.681852
									CHANNELS 6 Xposition Yposition Zposition Xrotation Yrotation Zrotation
									JOINT mixamorig:RightHandThumb2
									{
										OFFSET -3.215179 -1.872803 1.924282
										CHANNELS 6 Xposition Yposition Zposition Xrotation Yrotation Zrotation
										JOINT mixamorig:RightHandThumb3
										{
											OFFSET -2.654831 -1.527969 1.512609
											CHANNELS 6 Xposition Yposition Zposition Xrotation Yrotation Zrotation
											JOINT mixamorig:RightHandThumb4
											{
												OFFSET -2.018814 -1.152008 1.108052
												CHANNELS 6 Xposition Yposition Zposition Xrotation Yrotation Zrotation
												End Site
												{
													OFFSET -188.809540 -114.533607 132.431396
												}
											}
										}
									}
								}
								JOINT mixamorig:RightHandIndex1
								{
									OFFSET -9.108284 -0.517868 2.259835
									CHANNELS 6 Xposition Yposition Zposition Xrotation Yrotation Zrotation
									JOINT mixamorig:RightHandIndex2
									{
										OFFSET -3.699989 0.000000 0.001215
										CHANNELS 6 Xposition Yposition Zposition Xrotation Yrotation Zrotation
										JOINT mixamorig:RightHandIndex3
										{
											OFFSET -2.850006 0.000031 -0.000522
											CHANNELS 6 Xposition Yposition Zposition Xrotation Yrotation Zrotation
											JOINT mixamorig:RightHandIndex4
											{
												OFFSET -2.772186 -0.000015 -0.000020
												CHANNELS 6 Xposition Yposition Zposition Xrotation Yrotation Zrotation
												End Site
												{
													OFFSET -277.218445 0.000000 -0.050231
												}
											}
										}
									}
								}
								JOINT mixamorig:RightHandMiddle1
								{
									OFFSET -9.532516 -0.000031 -0.000023
									CHANNELS 6 Xposition Yposition Zposition Xrotation Yrotation Zrotation
									JOINT mixamorig:RightHandMiddle2
									{
										OFFSET -3.700005 -0.000015 0.003713
										CHANNELS 6 Xposition Yposition Zposition Xrotation Yrotation Zrotation
										JOINT mixamorig:RightHandMiddle3
										{
											OFFSET -2.949974 0.000015 -0.002054
											CHANNELS 6 Xposition Yposition Zposition Xrotation Yrotation Zrotation
											JOINT mixamorig:RightHandMiddle4
											{
												OFFSET -2.946640 0.000000 -0.000156
												CHANNELS 6 Xposition Yposition Zposition Xrotation Yrotation Zrotation
												End Site
												{
													OFFSET -294.664337 0.000000 -0.113670
												}
											}
										}
									}
								}
								JOINT mixamorig:RightHandRing1
								{
									OFFSET -9.103600 -0.043076 -1.865134
									CHANNELS 6 Xposition Yposition Zposition Xrotation Yrotation Zrotation
									JOINT mixamorig:RightHandRing2
									{
										OFFSET -3.379288 0.000000 -0.001055
										CHANNELS 6 Xposition Yposition Zposition Xrotation Yrotation Zrotation
										JOINT mixamorig:RightHandRing3
										{
											OFFSET -2.889687 -0.000015 0.000379
											CHANNELS 6 Xposition Yposition Zposition Xrotation Yrotation Zrotation
											JOINT mixamorig:RightHandRing4
											{
												OFFSET -2.638809 -0.000015 0.000941
												CHANNELS 6 Xposition Yposition Zposition Xrotation Yrotation Zrotation
												End Site
												{
													OFFSET -263.880371 0.000000 0.516020
												}
											}
										}
									}
								}
								JOINT mixamorig:RightHandPinky1
								{
									OFFSET -8.076683 -0.486710 -3.806280
									CHANNELS 6 Xposition Yposition Zposition Xrotation Yrotation Zrotation
									JOINT mixamorig:RightHandPinky2
									{
										OFFSET -3.600014 -0.000015 -0.003747
										CHANNELS 6 Xposition Yposition Zposition Xrotation Yrotation Zrotation
										JOINT mixamorig:RightHandPinky3
										{
											OFFSET -2.099983 0.000000 -0.005739
											CHANNELS 6 Xposition Yposition Zposition Xrotation Yrotation Zrotation
											JOINT mixamorig:RightHandPinky4
											{
												OFFSET -2.115768 -0.000031 -0.003680
												CHANNELS 6 Xposition Yposition Zposition Xrotation Yrotation Zrotation
												End Site
												{
													OFFSET -211.577087 0.000000 -0.350686
												}
											}
										}
									}
								}
							}
						}
					}
				}
				JOINT mixamorig:LeftShoulder
				{
					OFFSET 4.570447 11.014725 -2.160855
					CHANNELS 6 Xposition Yposition Zposition Xrotation Yrotation Zrotation
					JOINT mixamorig:LeftArm
					{
						OFFSET 10.592371 -0.524597 -2.232119
						CHANNELS 6 Xposition Yposition Zposition Xrotation Yrotation Zrotation
						JOINT mixamorig:LeftForeArm
						{
							OFFSET 27.841532 -0.000031 0.000026
							CHANNELS 6 Xposition Yposition Zposition Xrotation Yrotation Zrotation
							JOINT mixamorig:LeftHand
							{
								OFFSET 28.328846 -0.000061 0.000022
								CHANNELS 6 Xposition Yposition Zposition Xrotation Yrotation Zrotation
								JOINT mixamorig:LeftHandThumb1
								{
									OFFSET 2.466141 -1.576172 2.681732
									CHANNELS 6 Xposition Yposition Zposition Xrotation Yrotation Zrotation
									JOINT mixamorig:LeftHandThumb2
									{
										OFFSET 3.217812 -1.872070 1.916482
										CHANNELS 6 Xposition Yposition Zposition Xrotation Yrotation Zrotation
										JOINT mixamorig:LeftHandThumb3
										{
											OFFSET 2.656029 -1.528778 1.514513
											CHANNELS 6 Xposition Yposition Zposition Xrotation Yrotation Zrotation
											JOINT mixamorig:LeftHandThumb4
											{
												OFFSET 2.020889 -1.154053 1.115139
												CHANNELS 6 Xposition Yposition Zposition Xrotation Yrotation Zrotation
												End Site
												{
													OFFSET 190.885437 -115.081749 130.048782
												}
											}
										}
									}
								}
								JOINT mixamorig:LeftHandIndex1
								{
									OFFSET 9.109314 -0.518021 2.259871
									CHANNELS 6 Xposition Yposition Zposition Xrotation Yrotation Zrotation
									JOINT mixamorig:LeftHandIndex2
									{
										OFFSET 3.699989 0.000000 -0.000322
										CHANNELS 6 Xposition Yposition Zposition Xrotation Yrotation Zrotation
										JOINT mixamorig:LeftHandIndex3
										{
											OFFSET 2.850006 0.000000 0.000352
											CHANNELS 6 Xposition Yposition Zposition Xrotation Yrotation Zrotation
											JOINT mixamorig:LeftHandIndex4
											{
												OFFSET 2.774864 -0.000031 -0.000027
												CHANNELS 6 Xposition Yposition Zposition Xrotation Yrotation Zrotation
												End Site
												{
													OFFSET 277.486267 0.000000 -0.009857
												}
											}
										}
									}
								}
								JOINT mixamorig:LeftHandMiddle1
								{
									OFFSET 9.533394 0.000061 0.000044
									CHANNELS 6 Xposition Yposition Zposition Xrotation Yrotation Zrotation
									JOINT mixamorig:LeftHandMiddle2
									{
										OFFSET 3.699989 -0.000015 -0.000231
										CHANNELS 6 Xposition Yposition Zposition Xrotation Yrotation Zrotation
										JOINT mixamorig:LeftHandMiddle3
										{
											OFFSET 2.949997 -0.000015 -0.000059
											CHANNELS 6 Xposition Yposition Zposition Xrotation Yrotation Zrotation
											JOINT mixamorig:LeftHandMiddle4
											{
												OFFSET 2.952896 0.000031 0.000063
												CHANNELS 6 Xposition Yposition Zposition Xrotation Yrotation Zrotation
												End Site
												{
													OFFSET 295.289337 0.000000 0.022810
												}
											}
										}
									}
								}
								JOINT mixamorig:LeftHandRing1
								{
									OFFSET 9.104523 -0.042999 -1.865074
									CHANNELS 6 Xposition Yposition Zposition Xrotation Yrotation Zrotation
									JOINT mixamorig:LeftHandRing2
									{
										OFFSET 3.150009 -0.000031 0.000043
										CHANNELS 6 Xposition Yposition Zposition Xrotation Yrotation Zrotation
										JOINT mixamorig:LeftHandRing3
										{
											OFFSET 2.949982 -0.000015 0.000040
											CHANNELS 6 Xposition Yposition Zposition Xrotation Yrotation Zrotation
											JOINT mixamorig:LeftHandRing4
											{
												OFFSET 2.644348 0.000000 0.000057
												CHANNELS 6 Xposition Yposition Zposition Xrotation Yrotation Zrotation
												End Site
												{
													OFFSET 264.434631 0.000000 0.012105
												}
											}
										}
									}
								}
								JOINT mixamorig:LeftHandPinky1
								{
									OFFSET 8.077789 -0.486847 -3.806259
									CHANNELS 6 Xposition Yposition Zposition Xrotation Yrotation Zrotation
									JOINT mixamorig:LeftHandPinky2
									{
										OFFSET 3.599953 0.000031 0.014727
										CHANNELS 6 Xposition Yposition Zposition Xrotation Yrotation Zrotation
										JOINT mixamorig:LeftHandPinky3
										{
											OFFSET 2.100021 0.000015 0.007705
											CHANNELS 6 Xposition Yposition Zposition Xrotation Yrotation Zrotation
											JOINT mixamorig:LeftHandPinky4
											{
												OFFSET 2.125504 0.000031 0.007517
												CHANNELS 6 Xposition Yposition Zposition Xrotation Yrotation Zrotation
												End Site
												{
													OFFSET 212.550781 0.000000 0.625752
												}
											}
										}
									}
								}
							}
						}
					}
				}
			}
		}
	}
	JOINT mixamorig:RightUpLeg
	{
		OFFSET -8.207787 -6.751648 -1.599560
		CHANNELS 6 Xposition Yposition Zposition Xrotation Yrotation Zrotation
		JOINT mixamorig:RightLeg
		{
			OFFSET -0.000002 -44.370117 0.345942
			CHANNELS 6 Xposition Yposition Zposition Xrotation Yrotation Zrotation
			JOINT mixamorig:RightFoot
			{
				OFFSET 0.000003 -44.423679 -3.043532
				CHANNELS 6 Xposition Yposition Zposition Xrotation Yrotation Zrotation
				JOINT mixamorig:RightToeBase
				{
					OFFSET -0.000002 -8.728671 10.710558
					CHANNELS 6 Xposition Yposition Zposition Xrotation Yrotation Zrotation
					JOINT mixamorig:RightToe_End
					{
						OFFSET -0.000001 -0.000679 9.278119
						CHANNELS 6 Xposition Yposition Zposition Xrotation Yrotation Zrotation
						End Site
						{
							OFFSET 0.000000 -0.067690 927.812134
						}
					}
				}
			}
		}
	}
	JOINT mixamorig:LeftUpLeg
	{
		OFFSET 8.207793 -6.751686 -1.599556
		CHANNELS 6 Xposition Yposition Zposition Xrotation Yrotation Zrotation
		JOINT mixamorig:LeftLeg
		{
			OFFSET -0.000004 -44.370014 0.346954
			CHANNELS 6 Xposition Yposition Zposition Xrotation Yrotation Zrotation
			JOINT mixamorig:LeftFoot
			{
				OFFSET -0.000001 -44.423672 -3.044401
				CHANNELS 6 Xposition Yposition Zposition Xrotation Yrotation Zrotation
				JOINT mixamorig:LeftToeBase
				{
					OFFSET -0.000002 -8.728669 10.710558
					CHANNELS 6 Xposition Yposition Zposition Xrotation Yrotation Zrotation
					JOINT mixamorig:LeftToe_End
					{
						OFFSET -0.000003 -0.000679 9.278133
						CHANNELS 6 Xposition Yposition Zposition Xrotation Yrotation Zrotation
						End Site
						{
							OFFSET 0.000000 -0.068021 927.813477
						}
					}
				}
			}
		}
	}
}
MOTION
Frames: 3
Frame Time: 0.033333
0.000006 104.270477 1.554256 0.000010 0.000003 -0.000113 -0.000005 10.181587 0.131522 0.000001 -0.000003 0.000084 -0.000000 9.893967 -1.470711 0.000001 0.000000 -0.000000 -0.000000 9.220802 -1.370642 0.000000 -0.000000 -0.000000 0.000001 16.740433 -2.049030 0.000000 -0.000000 -0.000000 0.000000 9.617859 1.685014 0.000000 0.000000 0.000000 0.000002 22.037384 7.501101 0.000000 -0.000000 0.000000 -4.569968 11.014880 -2.160881 0.000008 0.000001 -0.000038 -10.592875 -0.524759 -2.231903 74.793051 27.916877 -21.517369 -27.841515 -0.000000 0.000538 -55.455050 106.999073 70.774495 -28.328806 0.000019 0.000024 -0.000320 -0.000043 0.000007 -2.464408 -1.573791 2.682336 -45.355362 -162.367052 -3.619218 -3.215256 -1.872537 1.924637 150.954598 32.962541 17.147391 -2.654952 -1.527889 1.513084 148.608742 26.910466 -34.288782 -2.018820 -1.151985 1.108061 -0.000001 -0.000007 0.000006 -9.108373 -0.517551 2.260117 100.136905 16.397811 -19.588592 -3.700078 0.000305 0.001500 95.709139 15.572872 -17.157531 -2.850099 0.000353 -0.000255 95.329114 13.153251 -14.423322 -2.772169 -0.000001 -0.000019 -0.000001 0.000001 -0.000001 -9.532574 0.000285 0.000236 95.621194 12.829269 -14.292874 -3.700069 0.000322 0.003969 93.896735 11.939788 -12.672978 -2.950047 0.000337 -0.001823 94.312994 11.900660 -12.816825 -2.946623 0.000014 -0.000153 0.000001 0.000000 -0.000001 -9.103687 -0.042747 -1.864857 95.368702 14.466090 -15.824305 -3.379317 0.000345 -0.000797 97.212150 6.391915 -7.268445 -2.889724 0.000364 0.000650 100.016256 4.948840 -5.950751 -2.638804 -0.000002 0.000939 -0.000004 0.000001 0.000001 -8.076728 -0.486364 -3.806005 90.873734 13.628428 -13.688129 -3.599992 0.000314 -0.003523 93.452547 1.673965 -1.436697 -2.099991 0.000343 -0.005493 94.353094 0.554378 -0.379546 -2.115752 -0.000055 -0.003677 0.000003 -0.000001 -0.000006 4.570446 11.014691 -2.160851 -0.000018 0.000010 -0.000021 10.592412 -0.524479 -2.232364 72.580759 -16.663025 12.275813 27.841831 0.000060 -0.000200 102.656910 -72.563807 85.055711 28.328817 -0.000027 0.000023 0.000023 -0.000088 -0.000000 2.466031 -1.576178 2.681906 -33.512893 153.854574 -19.537652 3.217758 -1.871704 1.916369 152.369089 -32.871689 -14.366616 2.656105 -1.528640 1.514451 139.507556 -28.137258 40.902352 2.020891 -1.154082 1.115147 0.000004 -0.000000 0.000003 9.109368 -0.517864 2.259742 84.341368 -15.718323 14.242649 3.700055 0.000131 -0.000468 80.724052 -16.700805 14.237354 2.850041 0.000166 0.000224 79.029448 -14.439580 11.928361 2.774895 -0.000034 -0.000028 -0.000000 0.000000 -0.000000 9.533464 0.000205 -0.000080 83.871158 -14.401176 12.942855 3.700050 0.000179 -0.000363 86.681965 -14.886764 14.054713 2.950062 0.000148 -0.000177 86.013774 -18.952575 17.701641 2.952873 -0.000015 0.000064 0.000000 -0.000000 0.000000 9.104585 -0.042847 -1.865247 83.274541 -14.103774 12.553302 3.150045 0.000199 -0.000091 89.105890 -12.117769 11.933297 2.950047 0.000160 -0.000071 90.888945 -14.392044 14.616511 2.644325 0.000031 0.000057 0.000002 0.000000 -0.000000 8.077848 -0.486733 -3.806393 73.112947 -16.530072 12.737951 3.600004 0.000175 0.014570 74.194603 -12.042413 9.504855 2.100048 0.000173 0.007543 79.184828 -11.978693 10.319172 2.125493 -0.000001 0.007515 -0.000000 0.000004 0.000001 -8.207786 -6.751667 -1.599560 -0.077001 -0.000003 0.000080 -0.000002 -44.370110 0.345938 0.153719 -0.000000 -0.000000 0.000000 -44.423679 -3.043532 -0.076700 0.000000 -0.000002 -0.000006 -8.728667 10.710559 -0.000009 -0.000000 -0.000000 -0.000001 -0.000679 9.278123 0.000000 -0.000000 -0.000000 8.207792 -6.751710 -1.599556 -0.074518 -0.000003 0.000081 -0.000002 -44.370014 0.346960 0.148822 0.000002 0.000000 -0.000001 -44.423664 -3.044403 -0.074314 0.000000 -0.000002 -0.000004 -8.728671 10.710558 0.000007 -0.000000 -0.000000 0.000000 -0.000680 9.278137 -0.000000 0.000000 -0.000001 
0.000006 104.270477 1.554256 0.000010 0.000003 -0.000113 -0.000005 10.181587 0.131522 0.000001 -0.000003 0.000084 -0.000000 9.893967 -1.470711 0.000001 0.000000 -0.000000 -0.000000 9.220802 -1.370642 0.000000 -0.000000 -0.000000 0.000001 16.740433 -2.049030 0.000000 -0.000000 -0.000000 0.000000 9.617859 1.685014 0.000000 0.000000 0.000000 0.000002 22.037384 7.501101 0.000000 -0.000000 0.000000 -4.569968 11.014880 -2.160881 0.000008 0.000001 -0.000038 -10.592867 -0.524778 -2.231883 75.018754 33.557498 -26.061958 -27.841530 0.000014 0.000536 -52.741563 104.380529 65.150319 -28.328808 0.000009 0.000034 -0.000324 -0.000043 0.000005 -2.464416 -1.573806 2.682329 -46.789562 -159.983944 -7.511477 -3.215245 -1.872520 1.924599 146.889693 32.891852 25.031095 -2.654963 -1.527845 1.513051 146.321462 27.980775 -26.642473 -2.018823 -1.152012 1.108069 -0.000005 -0.000001 0.000004 -9.108386 -0.517559 2.260136 100.877987 16.048033 -19.423214 -3.700071 0.000312 0.001517 97.228849 14.486850 -16.388387 -2.850093 0.000362 -0.000264 96.434710 12.296726 -13.747193 -2.772156 -0.000016 -0.000023 -0.000001 0.000003 0.000000 -9.532589 0.000268 0.000254 95.081773 15.292823 -16.848004 -3.700088 0.000318 0.003972 94.241707 13.255172 -14.161458 -2.950075 0.000326 -0.001791 97.342326 12.793232 -14.521655 -2.946609 -0.000000 -0.000155 0.000001 0.000000 -0.000000 -9.103707 -0.042769 -1.864869 94.146508 17.016534 -18.226184 -3.379323 0.000321 -0.000797 95.369733 9.335090 -10.267965 -2.889736 0.000343 0.000660 103.038253 6.972553 -8.822771 -2.638824 -0.000001 0.000941 -0.000000 -0.000001 -0.000000 -8.076774 -0.486403 -3.806021 87.416128 17.761139 -16.844262 -3.600044 0.000287 -0.003512 92.466609 7.617074 -7.584766 -2.099992 0.000320 -0.005462 97.313455 4.304624 -4.647231 -2.115776 -0.000046 -0.003678 -0.000002 0.000001 -0.000000 4.570446 11.014691 -2.160851 -0.000018 0.000010 -0.000021 10.592389 -0.524485 -2.232359 72.800691 -9.361030 6.908741 27.841831 0.000067 -0.000192 103.613191 -73.506209 87.018174 28.328825 -0.000029 0.000021 0.000021 -0.000089 -0.000000 2.466195 -1.576121 2.681872 -8.911165 159.424566 -68.974269 3.217815 -1.871757 1.916382 162.922428 -28.690134 13.634973 2.656115 -1.528644 1.514470 141.477670 -27.081814 52.059470 2.020888 -1.154067 1.115148 0.000003 0.000003 0.000001 9.109374 -0.517867 2.259731 84.218111 -19.995095 18.094513 3.700037 0.000137 -0.000483 81.465797 -13.029019 11.246878 2.850061 0.000199 0.000199 81.464049 -10.558334 9.097427 2.774872 -0.000031 -0.000024 -0.000000 -0.000002 0.000000 9.533457 0.000207 -0.000092 83.539689 -18.403187 16.457310 3.700038 0.000180 -0.000394 86.335592 -10.789449 10.121683 2.950064 0.000181 -0.000201 87.431974 -11.670146 11.164556 2.952873 -0.000015 0.000057 0.000001 0.000000 0.000000 9.104583 -0.042869 -1.865226 82.799289 -17.970540 15.873614 3.150039 0.000204 -0.000106 89.226490 -10.473913 10.335983 2.950025 0.000196 -0.000063 91.447244 -9.945527 10.200414 2.644311 0.000031 0.000054 -0.000001 -0.000000 -0.000000 8.077853 -0.486738 -3.806395 75.092261 -19.366518 15.414426 3.600008 0.000161 0.014570 77.777010 -15.107905 12.632809 2.100032 0.000183 0.007543 81.842550 -11.690200 10.560536 2.125481 0.000000 0.007508 0.000000 0.000001 -0.000000 -8.207786 -6.751667 -1.599560 -0.077001 -0.000003 0.000080 -0.000002 -44.370110 0.345938 0.153719 -0.000000 -0.000000 0.000000 -44.423679 -3.043532 -0.076700 0.000000 -0.000002 -0.000006 -8.728667 10.710559 -0.000009 -0.000000 -0.000000 -0.000001 -0.000679 9.278123 0.000000 -0.000000 -0.000000 8.207792 -6.751710 -1.599556 -0.074518 -0.000003 0.000081 -0.000002 -44.370014 0.346960 0.148822 0.000002 0.000000 -0.000001 -44.423664 -3.044403 -0.074314 0.000000 -0.000002 -0.000004 -8.728671 10.710558 0.000007 -0.000000 -0.000000 0.000000 -0.000680 9.278137 -0.000000 0.000000 -0.000001 
0.000006 104.270477 1.554256 0.000010 0.000003 -0.000113 -0.000005 10.181587 0.131522 0.000001 -0.000003 0.000084 -0.000000 9.893967 -1.470711 0.000001 0.000000 -0.000000 -0.000000 9.220802 -1.370642 0.000000 -0.000000 -0.000000 0.000001 16.740433 -2.049030 0.000000 -0.000000 -0.000000 0.000000 9.617859 1.685014 0.000000 0.000000 0.000000 0.000002 22.037384 7.501101 0.000000 -0.000000 0.000000 -4.569968 11.014880 -2.160881 0.000008 0.000001 -0.000038 -10.592857 -0.524803 -2.231849 74.709763 39.820122 -30.908672 -27.841528 0.000011 0.000543 -50.586239 103.223822 61.629186 -28.328821 0.000010 0.000031 -0.000321 -0.000045 0.000010 -2.464418 -1.573901 2.682362 -35.592662 -151.352252 14.635668 -3.215253 -1.872508 1.924610 148.832336 32.953180 21.011516 -2.654962 -1.527861 1.513048 146.508377 28.044253 -25.677917 -2.018827 -1.152021 1.108063 -0.000000 -0.000002 0.000005 -9.108372 -0.517550 2.260137 102.709468 15.277654 -19.101292 -3.700050 0.000324 0.001512 99.114166 13.190179 -15.421823 -2.850083 0.000374 -0.000255 97.318181 10.742767 -12.199187 -2.772178 -0.000015 -0.000016 0.000001 -0.000002 -0.000000 -9.532587 0.000285 0.000241 94.869354 13.605916 -14.952399 -3.700067 0.000334 0.003981 94.975748 12.035774 -13.016985 -2.950063 0.000342 -0.001788 96.401802 11.906117 -13.296749 -2.946637 -0.000000 -0.000158 0.000001 -0.000004 -0.000001 -9.103694 -0.042764 -1.864856 94.232999 15.232312 -16.338972 -3.379338 0.000328 -0.000792 95.526097 9.856924 -10.870042 -2.889741 0.000355 0.000673 101.489071 7.792249 -9.584457 -2.638812 -0.000001 0.000935 -0.000000 -0.000001 0.000001 -8.076757 -0.486396 -3.806035 88.061369 16.134915 -15.460270 -3.600041 0.000286 -0.003513 91.111493 7.574833 -7.365048 -2.100003 0.000322 -0.005465 95.336245 4.745493 -4.971133 -2.115763 -0.000054 -0.003678 -0.000002 0.000000 -0.000002 4.570446 11.014691 -2.160851 -0.000018 0.000010 -0.000021 10.592425 -0.524475 -2.232374 72.596202 -21.891366 16.170121 27.841833 0.000044 -0.000184 104.013590 -75.040973 89.023695 28.328838 -0.000029 0.000020 0.000022 -0.000089 0.000000 2.466240 -1.576058 2.681836 10.416590 167.365357 -102.797496 3.217865 -1.871821 1.916395 164.349569 -24.588688 30.001401 2.656108 -1.528662 1.514471 141.939937 -26.948225 51.795981 2.020887 -1.154068 1.115147 -0.000002 0.000003 0.000004 9.109376 -0.517874 2.259742 85.698568 -22.062092 20.487984 3.700063 0.000149 -0.000451 84.055402 -15.148661 13.683742 2.850041 0.000198 0.000218 84.182020 -12.158985 10.989426 2.774896 -0.000045 -0.000023 0.000002 0.000001 -0.000000 9.533456 0.000181 -0.000087 84.194021 -20.336070 18.400098 3.700049 0.000176 -0.000376 87.887118 -11.970317 11.537241 2.950045 0.000192 -0.000204 88.887952 -11.607916 11.389111 2.952852 -0.000031 0.000060 0.000000 -0.000000 -0.000001 9.104586 -0.042862 -1.865216 83.906060 -20.202610 18.198394 3.150055 0.000200 -0.000099 88.618754 -12.733955 12.434806 2.950003 0.000199 -0.000082 89.768261 -10.258371 10.218904 2.644304 0.000028 0.000057 -0.000001 -0.000000 -0.000001 8.077845 -0.486736 -3.806403 76.677432 -21.458207 17.537504 3.600025 0.000157 0.014576 76.408671 -17.505754 14.242417 2.100020 0.000161 0.007558 79.559833 -12.533833 10.854165 2.125510 -0.000016 0.007520 0.000001 0.000003 0.000000 -8.207786 -6.751667 -1.599560 -0.077001 -0.000003 0.000080 -0.000002 -44.370110 0.345938 0.153719 -0.000000 -0.000000 0.000000 -44.423679 -3.043532 -0.076700 0.000000 -0.000002 -0.000006 -8.728667 10.710559 -0.000009 -0.000000 -0.000000 -0.000001 -0.000679 9.278123 0.000000 -0.000000 -0.000000 8.207792 -6.751710 -1.599556 -0.074518 -0.000003 0.000081 -0.000002 -44.370014 0.346960 0.148822 0.000002 0.000000 -0.000001 -44.423664 -3.044403 -0.074314 0.000000 -0.000002 -0.000004 -8.728671 10.710558 0.000007 -0.000000 -0.000000 0.000000 -0.000680 9.278137 -0.000000 0.000000 -0.000001 
